<svg id="Layer_1" data-name="Layer 1" xmlns="http://www.w3.org/2000/svg" viewBox="0 0 333.62502 52.11437"><defs><style>.cls-1{fill:#1f55de;}.cls-2{fill:#00c9a7;}</style></defs><title>raven logo 27</title><path class="cls-1" d="M34.1,1.8A9.22447,9.22447,0,0,0,28.2,0a13.27927,13.27927,0,0,0-7.8,2.6,23.5872,23.5872,0,0,0-4.8,4.7l-.4-2.2a5.76047,5.76047,0,0,0-.5-1.7,3.26937,3.26937,0,0,0-1.1-1.5A4.02,4.02,0,0,0,12,1.1,9.20455,9.20455,0,0,0,10.1.9H2.203A1.703,1.703,0,0,0,.5,2.603V49.397A1.703,1.703,0,0,0,2.203,51.1H15.197A1.703,1.703,0,0,0,16.9,49.397V21.26473a1.72052,1.72052,0,0,1,.23374-.87219C19.10129,17.07158,21.62708,15.5,24.8,15.5a16.85776,16.85776,0,0,1,2.5.2c1.8.3,3.1.3,4.1-.4a2.675,2.675,0,0,0,1.1-2l2-11.2Z" transform="translate(-0.5 0.00926)"/><path class="cls-1" d="M72.7,5.7a17.42537,17.42537,0,0,0-6.3-4.2A21.39524,21.39524,0,0,0,58.2,0,35.218,35.218,0,0,0,46.4,2,35.1307,35.1307,0,0,0,36.36274,7.90441a.71619.71619,0,0,0-.163.89036L38.8,13.6a6.91914,6.91914,0,0,0,2,2.2,5.3836,5.3836,0,0,0,3.1.9,8.10923,8.10923,0,0,0,3.3-.6c.8-.4,1.7-.8,2.5-1.3.76842-.38421,1.72137-.76843,2.68158-1.15277a2.12014,2.12014,0,0,1,.23611-.0793A13.69506,13.69506,0,0,1,56.4,13.1a5.22127,5.22127,0,0,1,4.2,1.6c.84363.84363,1.33141,3.32422,1.46332,5.58042a1.2072,1.2072,0,0,1-1.14475,1.27522A78.31548,78.31548,0,0,0,49.1,22.9a27.34047,27.34047,0,0,0-8.9,3.9,12.62532,12.62532,0,0,0-4.8,5.3A13.29282,13.29282,0,0,0,34,37.8a16.20036,16.20036,0,0,0,1.1,6.1,12.07882,12.07882,0,0,0,3.1,4.5,15.12473,15.12473,0,0,0,5,2.8,20.84648,20.84648,0,0,0,6.3.9,21.29317,21.29317,0,0,0,4.6-.4,27.67,27.67,0,0,0,4.0135-1.16756c.06023-.02258.11981-.04748.17816-.07456A21.22643,21.22643,0,0,0,61.8,48.4c.44-.33,1.23657-.98061,1.86425-1.49923a.77492.77492,0,0,1,1.22725.35534,7.82919,7.82919,0,0,0,1.95386,3.341,2.04828,2.04828,0,0,0,.32.18A7.19431,7.19431,0,0,0,70.6,51.4h5.897A1.703,1.703,0,0,0,78.2,49.697V20a22.76414,22.76414,0,0,0-1.4-8A20.77375,20.77375,0,0,0,72.7,5.7ZM62.00006,36.06659a1.674,1.674,0,0,1-.52938,1.24037A14.46684,14.46684,0,0,1,58.3,39.5c-1.4166.624-5.55,1.65625-7.53466.24951A3.52892,3.52892,0,0,1,49.5,36.9a3.99715,3.99715,0,0,1,1.92189-3.3375c1.07544-.80806,5.09088-1.506,9.54654-1.89626A.95226.95226,0,0,1,62,32.61592Z" transform="translate(-0.5 0.00926)"/><path class="cls-1" d="M117.35882,1.02353A4.54834,4.54834,0,0,0,114.5,1.8a4.08855,4.08855,0,0,0-1.8,2.3l-7,21.6c-.38458,1.15374-1.01566,3.25239-1.44557,4.68966a.47159.47159,0,0,1-.90494-.00242C102.92786,28.95,102.3203,26.85309,102,25.7L95.4,4.1a3.88629,3.88629,0,0,0-1.8-2.2A5.3836,5.3836,0,0,0,90.5,1H79.48855a1.703,1.703,0,0,0-1.58748,2.31969L96.078,50.11361A1.703,1.703,0,0,0,97.66547,51.2h12.169a1.703,1.703,0,0,0,1.58748-1.08639L129.59891,3.31969A1.703,1.703,0,0,0,128.01143,1Z" transform="translate(-0.5 0.00926)"/><path class="cls-1" d="M166.6,35.2a6.58308,6.58308,0,0,0-3,.7L161,37.3a18.07561,18.07561,0,0,1-3.1,1.3,11.62277,11.62277,0,0,1-4,.6,10.085,10.085,0,0,1-7-2.4,10.47221,10.47221,0,0,1-2.73487-4.92556A1.7122,1.7122,0,0,1,145.80748,29.7l24.5925,0a5.04049,5.04049,0,0,0,1.9-.3,2.43288,2.43288,0,0,0,1.5-1.3,7.71058,7.71058,0,0,0,.67073-1.86138,2.29167,2.29167,0,0,0,.043-.28A21.84731,21.84731,0,0,0,174.6,23.3a27.03,27.03,0,0,0-1.7-9.7,20.42221,20.42221,0,0,0-4.7-7.3A20.68043,20.68043,0,0,0,161,1.7,26.31079,26.31079,0,0,0,151.9.1a26.77641,26.77641,0,0,0-10.4,2,23.72078,23.72078,0,0,0-7.8,5.4,25.88561,25.88561,0,0,0-5,7.9,27.55,27.55,0,0,0-1.7,9.5,31.64377,31.64377,0,0,0,2,11.6,23.60083,23.60083,0,0,0,5.5,8.4,22.9979,22.9979,0,0,0,8.1,5.2,29.40882,29.40882,0,0,0,9.9,1.7,32.33484,32.33484,0,0,0,5.3-.4,21.71128,21.71128,0,0,0,5.6-1.3,25.02106,25.02106,0,0,0,5.5-2.6,26.57676,26.57676,0,0,0,5.134-4.18015.6365.6365,0,0,0,.04032-.8015L169.9,36.7A4.14693,4.14693,0,0,0,166.6,35.2ZM158,14.7a7.45047,7.45047,0,0,1,1.3,2.5l.00543.0207a1.69005,1.69005,0,0,1-1.6617,2.0793H146.35445a1.71363,1.71363,0,0,1-1.5162-2.49143A9.93045,9.93045,0,0,1,146.6,14.3a7.54827,7.54827,0,0,1,5.7-2.1,7.28082,7.28082,0,0,1,3.5.7,4.88938,4.88938,0,0,1,2.2,1.8Z" transform="translate(-0.5 0.00926)"/><path class="cls-1" d="M223.7,11.9a17.70075,17.70075,0,0,0-3.4-6.2,14.99952,14.99952,0,0,0-5.5-4.1A17.15139,17.15139,0,0,0,207.4.1a20.64887,20.64887,0,0,0-4.5.5A16.25508,16.25508,0,0,0,199,1.9a16.82563,16.82563,0,0,0-3.4,2c-.6.5-1.2.9-1.8,1.4l-.3-1.2a4.02758,4.02758,0,0,0-1.7-2.3A5.11736,5.11736,0,0,0,189,1h-8.19695A1.703,1.703,0,0,0,179.1,2.703V49.497a1.703,1.703,0,0,0,1.703,1.703H193.797a1.703,1.703,0,0,0,1.703-1.703V17.031a1.685,1.685,0,0,1,.6528-1.34521A22.62714,22.62714,0,0,1,198.9,13.9a9.02147,9.02147,0,0,1,4-.9,4.79548,4.79548,0,0,1,3.88845,1.47825,2.16,2.16,0,0,1,.20709.25663A7.42162,7.42162,0,0,1,208.3,19.4V49.297A1.703,1.703,0,0,0,210.003,51h12.99391a1.703,1.703,0,0,0,1.703-1.703V19.5A23.30909,23.30909,0,0,0,223.7,11.9Z" transform="translate(-0.5 0.00926)"/><path class="cls-2" d="M240.51718,45.53333h90.24065a3.24723,3.24723,0,0,1,3.36554,3.12447l.00165.05887h0a3.24724,3.24724,0,0,1-3.30829,3.185L330.7578,51.9H240.51718a3.24723,3.24723,0,0,1-3.36554-3.12445l-.00164-.05888h0a3.24723,3.24723,0,0,1,3.30831-3.185Z" transform="translate(-0.5 0.00926)"/><path class="cls-1" d="M244.41927,25.72526v10.028a1.24479,1.24479,0,0,1-1.24479,1.24479h-4.12565a1.24479,1.24479,0,0,1-1.24479-1.24479V2.68229a1.24479,1.24479,0,0,1,1.24479-1.24479H249.387a20.30435,20.30435,0,0,1,6.17287.83594,11.8785,11.8785,0,0,1,4.30369,2.33642,9.14676,9.14676,0,0,1,2.50879,3.59034,12.53618,12.53618,0,0,1,.81153,4.57421,12.62543,12.62543,0,0,1-.86133,4.73389,9.81347,9.81347,0,0,1-2.582,3.70117,12.00821,12.00821,0,0,1-4.30371,2.41016,19.14459,19.14459,0,0,1-6.04981.86084h-3.723A1.24479,1.24479,0,0,0,244.41927,25.72526Zm0-7.65413a1.24479,1.24479,0,0,0,1.24479,1.24479h3.723a9.972,9.972,0,0,0,3.17286-.45459,5.898,5.898,0,0,0,2.23829-1.30371,5.34026,5.34026,0,0,0,1.32714-2.06592,7.88532,7.88532,0,0,0,.44336-2.71729,7.153,7.153,0,0,0-.44336-2.582,5.11,5.11,0,0,0-1.32714-1.96777,5.91932,5.91932,0,0,0-2.23829-1.2417,10.50636,10.50636,0,0,0-3.17286-.43018h-3.723a1.24479,1.24479,0,0,0-1.24479,1.24479Z" transform="translate(-0.5 0.00926)"/><path class="cls-1" d="M275.15949,24.34831V35.75326a1.24479,1.24479,0,0,1-1.24479,1.24479H269.789a1.24479,1.24479,0,0,1-1.24479-1.24479V2.68229A1.24479,1.24479,0,0,1,269.789,1.4375H279.39a22.66329,22.66329,0,0,1,6.23438.75,11.88043,11.88043,0,0,1,4.2539,2.1025,8.10215,8.10215,0,0,1,2.43463,3.23393,10.78151,10.78151,0,0,1,.7754,4.144,10.73523,10.73523,0,0,1-.5293,3.39355,9.81344,9.81344,0,0,1-1.52442,2.90186,10.27835,10.27835,0,0,1-2.459,2.28711,12.88518,12.88518,0,0,1-1.47839.84387,1.22283,1.22283,0,0,0-.36043,1.92258,6.54517,6.54517,0,0,1,.66987.84877l7.58577,11.18907a1.24479,1.24479,0,0,1-1.03033,1.94331H290.3577a2.8953,2.8953,0,0,1-1.46289-.34473,2.967,2.967,0,0,1-1.0205-.9834l-7.47657-11.38623a2.61872,2.61872,0,0,0-.92187-.90967,3.22721,3.22721,0,0,0-1.48828-.2705h-1.58331A1.24479,1.24479,0,0,0,275.15949,24.34831Zm0-7.23617a1.24479,1.24479,0,0,0,1.24479,1.24479h2.887a10.24193,10.24193,0,0,0,3.25879-.46728,6.2975,6.2975,0,0,0,2.28711-1.291,5.17827,5.17827,0,0,0,1.33984-1.95508,6.74241,6.74241,0,0,0,.44336-2.48388,5.052,5.052,0,0,0-1.7832-4.15625Q283.053,6.55251,279.39,6.55275h-2.98568a1.24479,1.24479,0,0,0-1.24479,1.24479Z" transform="translate(-0.5 0.00926)"/><path class="cls-1" d="M333.47,19.21777A19.70287,19.70287,0,0,1,332.16633,26.46a17.166,17.166,0,0,1-3.66406,5.76758,16.58789,16.58789,0,0,1-5.68067,3.79883,20.51821,20.51821,0,0,1-14.71875,0,16.6807,16.6807,0,0,1-5.70508-3.79883A17.0617,17.0617,0,0,1,298.721,26.46a19.70331,19.70331,0,0,1-1.30371-7.24219,19.70713,19.70713,0,0,1,1.30371-7.24267,17.05283,17.05283,0,0,1,3.67675-5.7666,16.68984,16.68984,0,0,1,5.70511-3.79985A19.2622,19.2622,0,0,1,315.46809,1.044a19.014,19.014,0,0,1,7.35351,1.377,16.8435,16.8435,0,0,1,5.68067,3.7998,17.02262,17.02262,0,0,1,3.66406,5.7544A19.70726,19.70726,0,0,1,333.47,19.21777Zm-6.78711,0a16.55274,16.55274,0,0,0-.77539-5.25048A11.087,11.087,0,0,0,323.68195,10.02a9.58536,9.58536,0,0,0-3.52832-2.48389,13.214,13.214,0,0,0-9.38281,0A9.6676,9.6676,0,0,0,307.21809,10.02a11.14742,11.14742,0,0,0-2.251,3.94727,16.32567,16.32567,0,0,0-.78711,5.25048,16.32569,16.32569,0,0,0,.78711,5.25049,11.02335,11.02335,0,0,0,2.251,3.93506,9.7427,9.7427,0,0,0,3.55279,2.4717,13.2211,13.2211,0,0,0,9.38281,0,9.65955,9.65955,0,0,0,3.52833-2.47168,10.96458,10.96458,0,0,0,2.22558-3.93506A16.55335,16.55335,0,0,0,326.68293,19.21777Z" transform="translate(-0.5 0.00926)"/></svg>